<svg width="50" height="50" viewBox="0 0 50 50" fill="none" xmlns="http://www.w3.org/2000/svg">
<rect width="50" height="50" rx="15" fill="#393939"/>
<path d="M3.88188 27.704V30.224H24.0179V27.704H3.88188ZM12.2819 28.976V37.136H15.4499V28.976H12.2819ZM6.18588 15.752V25.592H21.6419V15.752H18.4739V18.272H9.35388V15.752H6.18588ZM9.35388 20.768H18.4739V23.048H9.35388V20.768ZM30.952 16.28V18.68C30.952 21.68 29.392 24.656 25.624 25.856L27.328 28.352C31.576 26.888 33.568 23.096 33.568 18.68V16.28H30.952ZM31.576 16.28V18.704C31.576 22.88 33.496 26.552 37.624 27.92L39.256 25.448C35.68 24.272 34.168 21.488 34.168 18.704V16.28H31.576ZM40.264 14.912V31.16H43.456V14.912H40.264ZM42.544 21.344V23.984H46.408V21.344H42.544ZM29.128 34.208V36.752H44.248V34.208H29.128ZM29.128 29.624V35.552H32.344V29.624H29.128Z" fill="white"/>
</svg>
